<?xml version="1.0" standalone="no"?>
<!DOCTYPE svg PUBLIC "-//W3C//DTD SVG 20010904//EN"
 "http://www.w3.org/TR/2001/REC-SVG-20010904/DTD/svg10.dtd">
<svg version="1.0" xmlns="http://www.w3.org/2000/svg"
 width="700.000000pt" height="700.000000pt" viewBox="0 0 700.000000 700.000000"
 preserveAspectRatio="xMidYMid meet">
<metadata>
Created by potrace 1.11, written by Peter Selinger 2001-2013
</metadata>
<g transform="translate(0.000000,700.000000) scale(0.100000,-0.100000)"
fill="#000000" stroke="none">
<path d="M3532 5658 c-213 -24 -382 -160 -452 -363 -35 -102 -30 -259 12 -359
68 -163 200 -277 368 -320 77 -19 220 -13 293 13 222 78 370 291 361 516 -7
151 -54 258 -158 360 -119 118 -267 171 -424 153z m175 -140 c105 -32 194
-110 246 -218 26 -55 31 -79 33 -152 5 -129 -33 -224 -121 -307 -103 -97 -226
-133 -361 -105 -218 44 -357 252 -319 474 3 19 19 62 34 95 88 186 288 274
488 213z"/>
<path d="M4801 5303 c-178 -36 -334 -174 -391 -344 -66 -195 -17 -403 129
-550 237 -237 636 -193 816 91 53 84 78 166 81 265 5 158 -45 285 -155 394
-128 127 -305 180 -480 144z m230 -132 c176 -55 293 -224 283 -409 -8 -149
-92 -274 -229 -341 -273 -135 -594 76 -580 381 13 269 269 448 526 369z"/>
<path d="M3850 4373 c-167 -25 -325 -143 -400 -298 -98 -205 -57 -438 105
-600 125 -125 272 -175 450 -152 189 24 361 168 426 357 33 95 32 250 -2 340
-33 86 -89 170 -152 225 -56 49 -170 108 -232 120 -45 9 -157 13 -195 8z m200
-140 c200 -65 316 -264 274 -469 -16 -78 -41 -127 -97 -190 -155 -172 -426
-176 -591 -8 -70 71 -107 156 -111 261 -6 124 33 223 119 308 111 107 264 144
406 98z"/>
<path d="M1114 3502 c-45 -6 -60 -48 -95 -262 -21 -122 -17 -463 5 -590 3 -14
7 -43 11 -65 35 -234 145 -542 278 -780 83 -147 51 -135 362 -135 284 0 311 4
363 53 39 36 52 72 55 149 3 57 7 72 18 70 8 -2 174 -57 369 -122 446 -149
688 -226 965 -309 178 -53 325 -63 507 -36 210 31 376 98 753 305 28 15 100
53 160 85 61 32 133 70 160 85 28 15 88 48 135 72 369 196 643 347 685 379
105 78 149 146 149 233 0 69 -17 110 -67 157 -52 50 -91 63 -192 62 -76 0
-104 -5 -180 -33 -49 -17 -97 -34 -105 -36 -8 -2 -35 -11 -60 -20 -25 -9 -117
-41 -205 -71 -88 -30 -169 -58 -180 -63 -31 -14 -288 -100 -291 -97 -1 1 -4
28 -7 59 -10 112 -92 219 -196 259 -53 20 -74 21 -447 21 l-390 1 -50 44
c-104 93 -248 179 -446 267 -61 27 -186 64 -303 91 -192 43 -273 50 -553 50
l-232 0 0 25 c0 24 -29 80 -54 105 -6 7 -28 21 -46 31 -32 16 -68 18 -445 18
-225 1 -420 0 -431 -2z m516 -915 l0 -794 -82 2 c-101 3 -98 3 -98 14 0 6 -17
38 -37 73 -113 193 -231 535 -259 753 -3 22 -7 46 -9 53 -8 24 -18 168 -18
262 -1 96 10 277 17 289 2 3 6 29 10 58 11 90 -10 83 247 83 l229 0 0 -793z
m322 776 c17 -15 18 -52 18 -773 0 -623 -2 -759 -14 -775 -11 -15 -28 -19 -97
-20 -46 -1 -89 0 -95 2 -7 3 -10 237 -9 791 1 433 3 788 3 790 1 1 41 2 89 2
66 0 91 -4 105 -17z m643 -167 c287 -37 473 -89 669 -188 119 -59 218 -130
340 -240 18 -17 52 -18 426 -18 401 0 406 0 450 -22 137 -70 140 -260 7 -330
-42 -22 -47 -22 -642 -23 -330 0 -606 -4 -613 -9 -44 -27 -30 -102 22 -111 17
-3 299 -5 626 -3 l595 3 50 23 c28 13 68 40 90 61 36 35 70 49 335 141 162 56
385 133 494 171 217 75 280 89 340 77 47 -10 71 -29 84 -67 22 -63 -49 -144
-198 -224 -50 -27 -291 -157 -380 -204 -41 -22 -109 -59 -150 -81 -604 -323
-824 -438 -893 -466 -84 -35 -204 -71 -267 -81 -19 -3 -60 -9 -90 -14 -92 -16
-245 -5 -350 23 -189 50 -857 265 -1326 426 l-120 41 0 555 c0 552 0 555 20
559 12 2 30 6 41 8 33 5 386 0 440 -7z"/>
</g>
</svg>
