<?xml version="1.0" encoding="UTF-8"?>
<svg width="24px" height="24px" viewBox="0 0 24 24" version="1.1" xmlns="http://www.w3.org/2000/svg" xmlns:xlink="http://www.w3.org/1999/xlink">
    <!-- Generator: Sketch 63.1 (92452) - https://sketch.com -->
    <title>back-icon</title>
    <desc>Created with Sketch.</desc>
    <g id="back-icon" stroke="none" stroke-width="1" fill="none" fill-rule="evenodd">
        <g id="back">
            <polygon id="Path" points="0 0 24 0 24 24 0 24"></polygon>
            <path d="M19.5,11 L7.83,11 L7.83,11 L13.0651951,5.7648049 C13.2604572,5.56954276 13.2604572,5.25296027 13.0651951,5.05769812 C13.0647787,5.05728169 13.0643615,5.05686599 13.0639436,5.05645103 L12.353549,4.3510592 C12.1580875,4.15697422 11.8424681,4.15753185 11.6476937,4.35230629 L4.35355339,11.6464466 C4.15829124,11.8417088 4.15829124,12.1582912 4.35355339,12.3535534 L11.6464466,19.6464466 C11.8417088,19.8417088 12.1582912,19.8417088 12.3535534,19.6464466 L13.0564466,18.9435534 C13.2512685,18.7480982 13.2514101,18.4317598 13.0567633,18.2361302 L7.83,13 L7.83,13 L19.5,13 C19.7761424,13 20,12.7761424 20,12.5 L20,11.5 C20,11.2238576 19.7761424,11 19.5,11 Z" id="Path" fill="#687688" fill-rule="nonzero"></path>
        </g>
    </g>
</svg>