<?xml version="1.0" encoding="utf-8"?>
<!-- Svg Vector Icons : http://www.onlinewebfonts.com/icon -->
<!DOCTYPE svg PUBLIC "-//W3C//DTD SVG 1.1//EN" "http://www.w3.org/Graphics/SVG/1.1/DTD/svg11.dtd">
<svg version="1.1" xmlns="http://www.w3.org/2000/svg" xmlns:xlink="http://www.w3.org/1999/xlink" x="0px" y="0px" viewBox="0 0 1000 1000" enable-background="new 0 0 1000 1000" xml:space="preserve" fill="#27A1F8" >
<metadata> Svg Vector Icons : http://www.onlinewebfonts.com/icon </metadata>
<g><g><g id="Left"><g><path d="M576.6,285.6c-12,0-22.8,4.7-31,12.2l-0.1-0.1L361.8,466.1c-9.5,8.7-14.9,21-14.9,33.9s5.4,25.1,14.9,33.9l183.8,168.4l0.1-0.1c8.2,7.5,19,12.2,31,12.2c25.4,0,45.9-20.6,45.9-45.9c0-13.4-5.8-25.4-15-33.8l0.1-0.1L460.8,500l146.8-134.6l-0.1-0.1c9.2-8.4,15-20.3,15-33.7C622.5,306.2,601.9,285.6,576.6,285.6z M500,10C229.4,10,10,229.4,10,500c0,270.6,219.4,490,490,490c270.6,0,490-219.4,490-490C990,229.4,770.6,10,500,10z M500,898.1c-219.5,0-398.1-178.6-398.1-398.1c0-219.5,178.6-398.1,398.1-398.1c219.5,0,398.1,178.6,398.1,398.1C898.1,719.5,719.5,898.1,500,898.1z"/></g></g></g><g></g><g></g><g></g><g></g><g></g><g></g><g></g><g></g><g></g><g></g><g></g><g></g><g></g><g></g><g></g></g>
</svg>