<?xml version="1.0" encoding="UTF-8"?>
<svg width="40px" height="40px" viewBox="0 0 40 40" version="1.1" xmlns="http://www.w3.org/2000/svg" xmlns:xlink="http://www.w3.org/1999/xlink">
    <!-- Generator: Sketch 63.1 (92452) - https://sketch.com -->
    <title>Logo</title>
    <desc>Created with Sketch.</desc>
    <g id="Symbols" stroke="none" stroke-width="1" fill="none" fill-rule="evenodd">
        <g id="menue" transform="translate(-19.000000, -12.000000)">
            <g id="noun_cooperation_762929" transform="translate(19.000000, 12.000000)">
                <rect id="Rectangle" fill="#8EE5C0" x="0" y="0" width="40" height="40" rx="4"></rect>
                <path d="M32.6122341,22.532324 C34.4004987,20.7440594 35.4223642,18.3353764 35.4223642,15.7807127 C35.4223642,13.2260489 34.4369939,10.8173659 32.6122341,9.02910132 C30.8239695,7.24083668 28.4152865,6.21897118 25.8606227,6.21897118 C23.5614254,6.21897118 21.4082088,7.0218655 19.6929345,8.48167337 C17.9776603,7.0218655 15.8244437,6.25546638 13.5617415,6.25546638 C11.0070777,6.25546638 8.59839477,7.24083668 6.81013014,9.06559651 C4.98537031,10.8538611 4,13.2625441 4,15.8172079 C4,18.3718716 4.98537031,20.7805546 6.81013014,22.5688192 C6.95611092,22.7148 7.1750821,22.8242856 7.39405328,22.8242856 C7.46704367,22.8242856 7.50353887,22.8242856 7.57652926,22.7877904 C7.72251005,23.2987232 7.97797643,23.7366655 8.34292839,24.1016175 C8.92685154,24.6855406 9.65675547,24.9775022 10.4596498,24.9775022 C10.496145,24.9775022 10.496145,24.9775022 10.5326402,24.9775022 C10.496145,25.7803965 10.7881066,26.5832909 11.4085249,27.167214 C11.992448,27.7511372 12.7588472,28.0430987 13.5252463,28.0430987 C13.5617415,28.0430987 13.5617415,28.0430987 13.5982367,28.0430987 C13.5982367,28.0795939 13.5982367,28.0795939 13.5982367,28.1160891 C13.5982367,28.9189834 13.9266935,29.6853826 14.4741214,30.2328105 C15.0580446,30.8167337 15.7879485,31.1086952 16.5908428,31.1086952 C16.5908428,31.9115896 16.8828044,32.7144839 17.5032227,33.298407 C18.0871459,33.8823302 18.8900402,34.2107869 19.6929345,34.2107869 C20.4958288,34.2107869 21.262228,33.9188254 21.8826463,33.298407 C21.9556367,33.2254166 21.9921319,33.1524262 22.0286271,33.0794359 L32.5392437,22.532324 C32.5392437,22.5688192 32.5757389,22.532324 32.6122341,22.532324 Z" id="Path" fill="#8EE5C0" fill-rule="nonzero"></path>
                <path d="M5.64228385,15.8172079 C5.64228385,13.7004865 6.44517817,11.7297459 7.94148123,10.2334428 C9.43778429,8.73713974 11.4085249,7.93424542 13.5252463,7.93424542 C15.6419677,7.93424542 17.6127083,8.73713974 19.1090114,10.2334428 L22.4300743,13.5545057 C23.123483,14.2479144 23.123483,15.3792655 22.4300743,16.1091694 C21.7366655,16.8025782 20.6053144,16.8025782 19.8754105,16.1091694 L19.6564393,15.8537031 L16.5908428,12.7881066 L14.2916454,10.4889092 C13.9631887,10.1604524 13.4522559,10.1604524 13.1237991,10.4889092 C12.7953424,10.8173659 12.7953424,11.3282987 13.1237991,11.6567555 L14.8390734,13.3720297 L8.34292839,19.8316795 C8.01447162,20.1601363 7.75900525,20.5615834 7.61302446,20.9995258 C6.73637976,23.6294599 5.64228385,18.5894018 5.64228385,15.8172079 Z" id="Path" fill="#362F64" fill-rule="nonzero"></path>
                <path d="M9.51077468,22.9337712 C9.25530831,22.6783048 9.10932752,22.3498481 9.10932752,21.9848961 C9.10932752,21.6199441 9.25530831,21.2914874 9.51077468,21.036021 L16.0069197,14.539876 L17.9046699,16.4376262 L11.4085249,22.9337712 C10.8975922,23.444704 10.0217074,23.444704 9.51077468,22.9337712 Z" id="Path" fill="#362F64" fill-rule="nonzero"></path>
                <path d="M18.7075642,32.1670559 C18.2696219,31.7291136 18.1966315,31.0357048 18.4520978,30.5247721 C18.5615834,30.4517817 18.671069,30.3422961 18.7440594,30.2693057 L25.8241275,23.1892376 C26.1525843,22.8607808 26.1525843,22.3498481 25.8241275,22.0213913 C25.4956708,21.6929345 24.984738,21.6929345 24.6562813,22.0213913 L17.8681747,28.7730027 C17.7586891,28.8094979 17.6127083,28.8824882 17.5032227,28.9919738 C17.3937371,29.1014594 17.3207467,29.210945 17.2112612,29.3204306 C16.7003284,29.575897 16.0434149,29.5029066 15.6054725,29.1014594 C15.3500061,28.8459931 15.2040253,28.5175363 15.2040253,28.1525843 C15.2040253,27.7876324 15.3500061,27.4591756 15.6054725,27.2037092 L22.6855406,20.1236411 C23.0139974,19.7951843 23.0139974,19.2842516 22.6855406,18.9557948 C22.3570839,18.627338 21.8461511,18.627338 21.5176944,18.9557948 L14.5106166,25.9993677 C13.9996839,26.5103005 13.1237991,26.5103005 12.6128664,25.9993677 C12.1019336,25.488435 12.1019336,24.6125502 12.6128664,24.1016175 L19.1455066,17.5689773 C19.7659249,18.0434149 20.4958288,18.262386 21.2257328,18.262386 C22.1016175,18.262386 22.9775022,17.9339293 23.6709109,17.2405205 C25.0212332,15.8901983 25.0212332,13.7004865 23.6709109,12.3501642 C23.6709109,12.3501642 23.6709109,12.3501642 23.6709109,12.3501642 C23.6709109,12.3501642 23.6709109,12.3501642 23.6709109,12.3501642 L20.897276,9.64951966 C22.2840935,8.51816856 24.0358629,7.89775022 25.8606227,7.89775022 C27.9773441,7.89775022 29.9480848,8.70064455 31.4443878,10.1969476 C32.9406909,11.6932507 33.7435852,13.6639913 33.7435852,15.7807127 C33.7435852,17.8609389 32.9406909,19.8316795 31.480883,21.3279826 C31.480883,21.3279826 31.4443878,21.3644778 31.4443878,21.3644778 L20.6418096,32.1670559 C20.6053144,32.2035511 20.5688192,32.2765415 20.532324,32.3130367 C19.9848961,32.7144839 19.1820018,32.6414935 18.7075642,32.1670559 Z" id="Path" fill="#362F64" fill-rule="nonzero"></path>
            </g>
        </g>
    </g>
</svg>