<svg xmlns="http://www.w3.org/2000/svg" xmlns:xlink="http://www.w3.org/1999/xlink" version="1.1" x="0px" y="0px" viewBox="206 206 100 125" enable-background="new 206 206 100 100" xml:space="preserve"><g><path d="M297.117,269.601c-1.516-2.527-4.892-2.034-6.665-1.338l-14.312,4.961c0.021-0.193,0.034-0.388,0.034-0.586   c0-2.856-2.324-5.18-5.18-5.18c-0.003,0-0.006,0.001-0.009,0.001h-12.122c-4.25-4.089-10.299-6.648-17.526-7.411   c-3.881-0.409-7.123-0.209-8.783-0.041v-0.073c0-1.654-1.346-3.001-3.001-3.001h-13.197c-0.472,0-0.882,0.321-0.997,0.778   c-2.078,8.314-0.533,15.838,1.13,20.687c1.8,5.247,4.07,8.508,4.166,8.645c0.192,0.273,0.506,0.437,0.841,0.437h7.852   c1.287,0,2.031-0.513,2.429-0.943c0.784-0.848,0.79-1.936,0.778-2.209v-1.495c4.549,1.55,19.036,6.449,24.292,7.78   c1.189,0.302,2.402,0.426,3.594,0.426c5.284,0,10.118-2.437,10.377-2.569c2.284-1.214,22.346-11.876,23.257-12.455l0.091-0.058   c0.538-0.342,1.66-1.053,2.472-2.04C297.781,272.524,297.952,270.992,297.117,269.601z M217.171,258.989h7.656v26.436h-2.774   C220.605,283.124,214.26,272.047,217.171,258.989z M230.262,285.149c-0.175,0.183-0.482,0.275-0.913,0.275h-2.467v-26.436h2.672   c0.521,0,0.946,0.424,0.946,0.946v1.233v20.227v2.96c0,0.026,0,0.039,0.002,0.065C230.503,284.425,230.516,284.882,230.262,285.149   z M293.066,274.22l-0.094,0.06c-0.677,0.427-14.196,7.634-23.104,12.367c-0.066,0.034-6.808,3.421-12.516,1.974   c-5.399-1.367-21.279-6.76-24.797-7.96v-18.584c3.514-0.366,16.894-1.134,25.163,7.137c0.192,0.192,0.454,0.301,0.727,0.301h12.55   c0.002,0,0.004-0.001,0.006-0.001c1.721,0.003,3.119,1.404,3.119,3.125c0,1.723-1.401,3.125-3.125,3.125h-18.911   c-0.568,0-1.028,0.46-1.028,1.027s0.46,1.027,1.028,1.027h18.911c1.69,0,3.194-0.814,4.14-2.07l16.012-5.55   c0.013-0.005,0.027-0.011,0.04-0.016c0.031-0.012,3.174-1.183,4.17,0.476C295.749,271.314,295.941,272.398,293.066,274.22z"/><g><path fill="#000000" d="M263.13,260.062c-4.876,0-8.842-3.967-8.842-8.842c0-4.875,3.967-8.842,8.842-8.842    s8.842,3.967,8.842,8.842C271.972,256.095,268.006,260.062,263.13,260.062z M263.13,244.433c-3.742,0-6.787,3.045-6.787,6.787    c0,3.743,3.045,6.788,6.787,6.788s6.787-3.045,6.787-6.788C269.917,247.478,266.872,244.433,263.13,244.433z"/></g><g><path fill="#000000" d="M279.493,244.433c-4.875,0-8.842-3.966-8.842-8.842s3.967-8.842,8.842-8.842    c4.876,0,8.842,3.966,8.842,8.842S284.369,244.433,279.493,244.433z M279.493,228.804c-3.742,0-6.787,3.044-6.787,6.787    c0,3.742,3.045,6.787,6.787,6.787c3.743,0,6.787-3.045,6.787-6.787S283.237,228.804,279.493,228.804z"/></g><g><path fill="#000000" d="M257.41,238.646c-4.876,0-8.842-3.966-8.842-8.842s3.967-8.842,8.842-8.842    c4.875,0,8.842,3.966,8.842,8.842S262.285,238.646,257.41,238.646z M257.41,223.017c-3.743,0-6.787,3.044-6.787,6.787    c0,3.742,3.044,6.787,6.787,6.787c3.742,0,6.787-3.044,6.787-6.787S261.153,223.017,257.41,223.017z"/></g></g></svg>