<?xml version="1.0" encoding="UTF-8"?>
<svg width="24px" height="24px" viewBox="0 0 24 24" version="1.1" xmlns="http://www.w3.org/2000/svg" xmlns:xlink="http://www.w3.org/1999/xlink">
    <!-- Generator: Sketch 63.1 (92452) - https://sketch.com -->
    <title>help-icon</title>
    <desc>Created with Sketch.</desc>
    <defs>
        <path d="M10,0 C15.5228475,0 20,4.4771525 20,10 C20,15.5228475 15.5228475,20 10,20 C4.4771525,20 0,15.5228475 0,10 C0,4.4771525 4.4771525,0 10,0 Z M10,14 C9.30964406,14 8.75,14.5596441 8.75,15.25 C8.75,15.9403559 9.30964406,16.5 10,16.5 C10.6903559,16.5 11.25,15.9403559 11.25,15.25 C11.25,14.5596441 10.6903559,14 10,14 Z M10.6041814,4.05791528 C8.64012489,3.72838504 6.71944994,4.83252953 6.05817217,6.671294 C5.87092777,7.19195016 6.15063541,7.76250179 6.68291666,7.94565675 C7.17717782,8.11572921 7.71542169,7.89196809 7.93971028,7.44226803 L7.93971028,7.44226803 L7.98573309,7.33455676 L8.04656586,7.18478734 C8.42314309,6.35604563 9.33126658,5.8722559 10.2587377,6.0278674 C11.240766,6.19263252 11.9581257,7.02618987 11.9566436,8.00079954 C11.9566425,8.47226019 11.58188,8.96102982 10.8790812,9.419329 C10.5962241,9.60378176 10.3096728,9.86537372 10,10 C9.38095238,10 9.04931973,10.287415 9.00510204,10.8622449 L9.00510204,10.8622449 L9,11 L9,12 L9.00672773,12.1166211 C9.06449284,12.6139598 9.48716416,13 10,13 C10.5522847,13 11,12.5522847 11,12 L11,12 L10.999241,11.6444196 C11.3163615,11.4969485 11.6628241,11.310409 12.0125261,11.0823663 C13.2253686,10.2914646 14,9.28119319 14,8.00228608 C14.0029539,6.05455736 12.5682367,4.38744531 10.6041814,4.05791528 Z" id="path-1"></path>
    </defs>
    <g id="help-icon" stroke="none" stroke-width="1" fill="none" fill-rule="evenodd">
        <g id="back">
            <polygon id="Path" points="0 0 24 0 24 24 0 24"></polygon>
        </g>
        <g id="-help-circled" transform="translate(2.000000, 2.000000)">
            <mask id="mask-2" fill="white">
                <use xlink:href="#path-1"></use>
            </mask>
            <use id="icon-help" fill="#687688" xlink:href="#path-1"></use>
        </g>
    </g>
</svg>