<?xml version="1.0" encoding="UTF-8"?>
<svg width="17px" height="17px" viewBox="0 0 23 23" version="1.1" xmlns="http://www.w3.org/2000/svg" xmlns:xlink="http://www.w3.org/1999/xlink">
    <!-- Generator: Sketch 63.1 (92452) - https://sketch.com -->
    <title> help-circled</title>
    <desc>Created with Sketch.</desc>
    <defs>
        <path d="M11.5,0.547619048 C17.548833,0.547619048 22.452381,5.45116703 22.452381,11.5 C22.452381,17.548833 17.548833,22.452381 11.5,22.452381 C5.45116703,22.452381 0.547619048,17.548833 0.547619048,11.5 C0.547619048,5.45116703 5.45116703,0.547619048 11.5,0.547619048 Z M11.5,15.8809524 C10.7438959,15.8809524 10.1309524,16.4938959 10.1309524,17.25 C10.1309524,18.0061041 10.7438959,18.6190476 11.5,18.6190476 C12.2561041,18.6190476 12.8690476,18.0061041 12.8690476,17.25 C12.8690476,16.4938959 12.2561041,15.8809524 11.5,15.8809524 Z M12.1617225,4.99200245 C10.010613,4.63108838 7.90701661,5.84038949 7.18276,7.85427438 C6.9776828,8.42451684 7.28402926,9.04940673 7.86700396,9.25000501 C8.40833761,9.43627485 8.99784281,9.19120314 9.24349221,8.69867451 L9.24349221,8.69867451 L9.29389815,8.58070503 L9.35671054,8.42511307 C9.76680786,7.51228997 10.7644328,6.97860977 11.7833794,7.14956906 C12.8589341,7.33002609 13.6446138,8.24296985 13.6429906,9.31039949 C13.6429894,9.82676116 13.2325352,10.3620803 12.4628032,10.864027 C12.1530074,11.0660467 11.8391654,11.3525522 11.5,11.5 C10.8185185,11.5 10.4550617,11.8180247 10.4096296,12.4540741 L10.4096296,12.4540741 L10.4047619,12.5952381 L10.4047619,13.6904762 L10.4111886,13.8098144 C10.4706516,14.3585608 10.9354423,14.7857143 11.5,14.7857143 C12.1048833,14.7857143 12.5952381,14.2953595 12.5952381,13.6904762 L12.5952381,13.6904762 L12.5945365,13.3009707 C12.9418237,13.1394641 13.321236,12.9351788 13.7041952,12.6854488 C15.0325465,11.8192231 15.8809574,10.7127354 15.8809574,9.31202761 C15.8841876,7.17880092 14.3128307,5.3529163 12.1617225,4.99200245 Z" id="path-1"></path>
    </defs>
    <g id="NEW" stroke="none" stroke-width="1" fill="none" fill-rule="evenodd">
        <g id="02" transform="translate(-111.000000, -21.000000)">
            <g id="-help-circled" transform="translate(111.000000, 21.000000)">
                <mask id="mask-2" fill="white">
                    <use xlink:href="#path-1"></use>
                </mask>
                <use id="icon-help" fill="#362F64" xlink:href="#path-1"></use>
            </g>
        </g>
    </g>
</svg>