<?xml version="1.0" encoding="UTF-8"?>
<svg width="24px" height="24px" viewBox="0 0 24 24" version="1.1" xmlns="http://www.w3.org/2000/svg" xmlns:xlink="http://www.w3.org/1999/xlink">
    <!-- Generator: Sketch 63.1 (92452) - https://sketch.com -->
    <title>Search-icon</title>
    <desc>Created with Sketch.</desc>
    <defs>
        <path d="M10.7535377,12.1176207 C7.92712428,14.2287138 3.9500099,13.7978886 1.64122867,11.1305198 C-0.667552546,8.46315103 -0.523696073,4.46535731 1.97083062,1.97083062 C4.46535731,-0.523696073 8.46315103,-0.667552546 11.1305198,1.64122867 C13.7978886,3.9500099 14.2287138,7.92712428 12.1176207,10.7535377 C12.1968577,10.7984862 12.2695866,10.854043 12.3337923,10.9186688 L15.7194805,14.3043569 C16.0987538,14.6970476 16.0933297,15.3212491 15.7072894,15.7072894 C15.3212491,16.0933297 14.6970476,16.0987538 14.3043569,15.7194805 L10.9186688,12.3337923 C10.854043,12.2695866 10.7984862,12.1968577 10.7535377,12.1176207 L10.7535377,12.1176207 Z M6.72734098,11.4530931 C8.41568961,11.4530931 9.97578809,10.5523698 10.8199624,9.09021705 C11.6641367,7.62806425 11.6641367,5.8266177 10.8199624,4.3644649 C9.97578809,2.9023121 8.41568961,2.00158887 6.72734098,2.00158887 C4.11738016,2.00158887 2.00158887,4.11738016 2.00158887,6.72734098 C2.00158887,9.33730179 4.11738016,11.4530931 6.72734098,11.4530931 L6.72734098,11.4530931 Z" id="path-1"></path>
    </defs>
    <g id="Search-icon" stroke="none" stroke-width="1" fill="none" fill-rule="evenodd">
        <g id="icon" transform="translate(4.000000, 4.000000)">
            <mask id="mask-2" fill="white">
                <use xlink:href="#path-1"></use>
            </mask>
            <use id="icon-search" fill="#687688" fill-rule="nonzero" xlink:href="#path-1"></use>
        </g>
    </g>
</svg>